<?xml version="1.0" encoding="utf-8"?>
<!-- Generator: Adobe Illustrator 25.3.1, SVG Export Plug-In . SVG Version: 6.00 Build 0)  -->
<svg version="1.1" id="Layer_1" xmlns="http://www.w3.org/2000/svg" xmlns:xlink="http://www.w3.org/1999/xlink" x="0px" y="0px"
	 viewBox="0 0 284.3 152.7" style="enable-background:new 0 0 284.3 152.7;" xml:space="preserve">
<style type="text/css">
	.st0{fill:#62B779;}
	.st1{fill:#006CB6;}
	.st2{fill:url(#SVGID_1_);}
	.st3{fill:url(#SVGID_2_);}
	.st4{fill:url(#SVGID_3_);}
	.st5{fill:url(#SVGID_4_);}
	.st6{fill:url(#SVGID_5_);}
	.st7{fill:url(#SVGID_6_);}
	.st8{fill:url(#SVGID_7_);}
	.st9{fill:#585857;}
	.st10{fill:none;stroke:#595958;stroke-width:3;stroke-miterlimit:10;}
	.st11{fill:#595958;}
	.st12{fill:url(#SVGID_8_);}
	.st13{fill:url(#SVGID_9_);}
	.st14{fill:url(#SVGID_10_);}
	.st15{fill:url(#SVGID_11_);}
	.st16{fill:url(#SVGID_12_);}
	.st17{fill:url(#SVGID_13_);}
	.st18{fill:url(#SVGID_14_);}
	.st19{fill:none;stroke:#334653;stroke-width:3;stroke-miterlimit:10;}
	.st20{fill:#334653;}
	.st21{clip-path:url(#SVGID_16_);}
	.st22{fill:none;stroke:#FFFFFF;stroke-width:0.75;stroke-miterlimit:10;}
	.st23{fill:#FFFFFF;}
	.st24{fill:#509B8F;}
	.st25{fill:url(#SVGID_17_);}
	.st26{fill:url(#SVGID_18_);}
	.st27{fill:url(#SVGID_19_);}
	.st28{fill:url(#SVGID_20_);}
	.st29{fill:url(#SVGID_21_);}
	.st30{fill:url(#SVGID_22_);}
	.st31{fill:url(#SVGID_23_);}
	.st32{clip-path:url(#SVGID_25_);fill:none;stroke:#FFFFFF;stroke-width:0.75;stroke-miterlimit:10;}
	.st33{clip-path:url(#SVGID_25_);}
	.st34{fill:#509B8F;stroke:#509B8F;stroke-width:0.25;stroke-miterlimit:10;}
	.st35{fill:url(#SVGID_26_);}
	.st36{fill:url(#SVGID_27_);}
	.st37{fill:url(#SVGID_28_);}
	.st38{fill:url(#SVGID_29_);}
	.st39{fill:url(#SVGID_30_);}
	.st40{fill:url(#SVGID_31_);}
	.st41{fill:url(#SVGID_32_);}
	.st42{clip-path:url(#SVGID_34_);fill:none;stroke:#FFFFFF;stroke-width:0.75;stroke-miterlimit:10;}
	.st43{clip-path:url(#SVGID_34_);}
	.st44{fill:url(#SVGID_35_);}
	.st45{fill:url(#SVGID_36_);}
	.st46{fill:url(#SVGID_37_);}
	.st47{fill:url(#SVGID_38_);}
	.st48{fill:url(#SVGID_39_);}
	.st49{fill:url(#SVGID_40_);}
	.st50{fill:url(#SVGID_41_);}
	.st51{clip-path:url(#SVGID_43_);fill:none;stroke:#FFFFFF;stroke-width:0.75;stroke-miterlimit:10;}
	.st52{clip-path:url(#SVGID_43_);}
	.st53{fill:url(#SVGID_44_);}
	.st54{fill:url(#SVGID_45_);}
	.st55{fill:url(#SVGID_46_);}
	.st56{fill:url(#SVGID_47_);}
	.st57{fill:url(#SVGID_48_);}
	.st58{fill:url(#SVGID_49_);}
	.st59{fill:url(#SVGID_50_);}
</style>
<g>
	<defs>
		<rect id="SVGID_24_" width="284.3" height="152.7"/>
	</defs>
	<clipPath id="SVGID_1_">
		<use xlink:href="#SVGID_24_"  style="overflow:visible;"/>
	</clipPath>
	<path style="clip-path:url(#SVGID_1_);fill:none;stroke:#FFFFFF;stroke-width:0.75;stroke-miterlimit:10;" d="M147.2,3.9v144.8"/>
	<g style="clip-path:url(#SVGID_1_);">
		<path class="st23" d="M197.4,113.2h7.9c2.5,0,3.9-1.6,3.9-4.4V98.2h-2V109c0,0.3,0,0.6-0.1,0.9c-0.1,0.3-0.3,0.6-0.5,0.8
			c-0.2,0.2-0.5,0.4-0.8,0.5c-0.3,0.1-0.6,0.1-0.9,0.1h-7.7c-0.5,0-1-0.1-1.5-0.3c-0.5-0.2-0.8-0.6-1.1-1c-0.3-0.4-0.4-1-0.4-1.5
			c0-0.5,0.2-1,0.5-1.4l0.2-0.3l-0.3-0.2l-0.5-0.4l-0.6-0.5l-0.3,0.3c-0.5,0.7-0.8,1.6-0.9,2.4c-0.1,0.9,0.1,1.8,0.6,2.5
			c0.4,0.8,1.1,1.4,1.9,1.8C195.6,113.1,196.5,113.3,197.4,113.2z"/>
		<path class="st23" d="M203.6,105.3l0.2-0.3l-1.3-1.2l-0.2,0.5c0,0.1-0.1,0.1-0.1,0.1c0,0-0.1,0.1-0.2,0.1h-1.3v-0.8
			c0-0.4,0.1-1.1,0.6-1.1c0.1,0,0.1,0,0.2,0c0.1,0,0.1,0.1,0.2,0.1c0.1,0.1,0.1,0.1,0.1,0.2c0,0.1,0,0.1,0,0.2v0.4h1.6v-0.4
			c0-0.6-0.3-1.1-0.7-1.5c-0.4-0.4-1-0.6-1.5-0.6c-1.5,0-2.4,1-2.4,2.7v0.8h-0.6l-0.6,1.7h4.3c0.3,0,0.7-0.1,1-0.2
			C203.2,105.9,203.4,105.6,203.6,105.3z"/>
		<path class="st23" d="M210.3,116.3c0.8,0.4,1.6,0.6,2.4,0.6c0.6,0,1.2-0.1,1.7-0.3c0.6-0.2,1.1-0.5,1.5-1c0.7-0.8,1.1-1.8,1.1-2.8
			v-10.2h-2v10.1c0,0.6-0.3,1.2-0.8,1.7c-0.5,0.4-1.1,0.6-1.7,0.6c-0.7,0-1.4-0.2-2-0.5l-0.7-0.4l0.3,2.1L210.3,116.3z"/>
		<path class="st23" d="M248.2,114.7H246v2.3h2.2V114.7z"/>
		<path class="st23" d="M258.2,109c0,0.3,0,0.6-0.1,0.9c-0.1,0.3-0.3,0.6-0.5,0.8c-0.2,0.2-0.5,0.4-0.8,0.5
			c-0.3,0.1-0.6,0.1-0.9,0.1h-2.4v-0.8c0-3.8-1.7-7.8-6.5-7.8c-2.3,0-4.8,1.1-5,4.1v0.4h1.9v-0.4c0.1-0.7,0.5-1.3,1.1-1.7
			c0.6-0.4,1.3-0.6,2-0.5c0.5,0,1.1,0.1,1.6,0.3c0.5,0.2,1,0.5,1.3,0.9c1.1,1.3,1.7,3,1.6,4.7v0.8H240c-1.4,0-2.2-0.8-2.4-2.3
			c0-0.7-0.1-1.4-0.3-2c-0.2-0.6-0.6-1.2-1.1-1.7c-0.5-0.5-1-0.9-1.7-1.2c-0.6-0.3-1.3-0.4-2-0.5c-1.4,0.1-2.7,0.7-3.6,1.7
			c-0.9,1-1.4,2.4-1.4,3.7c0,0.3-0.1,0.6-0.2,0.9c-0.1,0.3-0.3,0.5-0.5,0.7c-0.2,0.2-0.5,0.4-0.7,0.5c-0.3,0.1-0.6,0.2-0.9,0.2h-1.6
			c-0.3,0-0.6,0-0.9-0.1c-0.3-0.1-0.5-0.3-0.7-0.5c-0.2-0.2-0.4-0.5-0.4-0.8c-0.1-0.3-0.1-0.6-0.1-0.9V98.2h-2.1v10.6
			c0,2.8,1.4,4.4,3.9,4.4h2.1c1,0,1.9-0.3,2.7-0.9c0.4,0.9,1.1,1.6,1.9,2c0.8,0.5,1.8,0.7,2.7,0.7c1,0,1.9-0.4,2.6-0.9
			c0.8-0.6,1.3-1.3,1.7-2.2c0.4,0.4,0.9,0.8,1.4,1s1.1,0.4,1.7,0.4h16.1c2.5,0,3.9-1.6,3.9-4.4V98.2h-2V109z M232.6,105.5
			c2.3,0,2.9,2.4,2.9,3.7c0,1.3-0.6,3.7-2.9,3.7c-2.3,0-2.9-2.4-2.9-3.7C229.7,108,230.4,105.5,232.6,105.5z"/>
		<path class="st23" d="M264.6,98.2h-2v15h2V98.2z"/>
		<path class="st23" d="M272,117c0.5,0,1.1-0.1,1.6-0.3c0.5-0.2,1-0.5,1.4-0.9c0.4-0.4,0.7-0.8,0.9-1.3c0.2-0.5,0.3-1,0.3-1.6v-10.2
			H272c-0.7,0-1.4,0.1-2.1,0.4c-0.7,0.3-1.2,0.7-1.7,1.2s-0.9,1.1-1.1,1.8c-0.3,0.7-0.4,1.4-0.3,2.1c0,0.7,0.1,1.4,0.4,2
			c0.3,0.6,0.7,1.2,1.2,1.7c0.5,0.5,1.1,0.8,1.7,1.1c0.6,0.2,1.3,0.4,2,0.4h2.1c-0.1,0.5-0.3,0.9-0.6,1.2c-0.3,0.2-0.6,0.4-0.9,0.5
			c-0.3,0.1-0.7,0.1-1,0.1c-0.7,0-1.4-0.2-2-0.5l-0.7-0.4l0.2,2.1l0.2,0.1c0.7,0.4,1.5,0.6,2.4,0.6L272,117z M272,104.6h2.2v6.7H272
			c-0.4,0-0.9-0.1-1.3-0.3c-0.4-0.2-0.7-0.4-1-0.7c-0.3-0.3-0.5-0.7-0.7-1.1c-0.1-0.4-0.2-0.8-0.2-1.3c0-0.9,0.3-1.7,0.9-2.3
			C270.3,105,271.1,104.6,272,104.6L272,104.6z"/>
		<path class="st23" d="M197,6.8h-2.2v2.3h2.2V6.8z"/>
		<path class="st23" d="M200.1,6.8h-2.2v2.3h2.2V6.8z"/>
		<path class="st23" d="M231.7,8.2l0.2-0.3l-1.4-1.2l-0.2,0.6c0,0.1-0.1,0.1-0.1,0.1c0,0-0.1,0.1-0.2,0.1h-1.4V6.6
			c0-0.4,0-1.1,0.6-1.1c0.1,0,0.1,0,0.2,0c0.1,0,0.1,0.1,0.2,0.1c0.1,0,0.1,0.1,0.1,0.2c0,0.1,0,0.1,0,0.2v0.4h1.7V6
			c0-0.6-0.3-1.1-0.7-1.5c-0.4-0.4-1-0.6-1.6-0.6c-1.5,0-2.4,1.1-2.4,2.8v0.8h-0.7l-0.6,1.7h4.4c0.3,0,0.7-0.1,1-0.3
			C231.3,8.7,231.6,8.5,231.7,8.2z"/>
		<path class="st23" d="M246.1,22.9h-2.2v2.3h2.2V22.9z"/>
		<path class="st23" d="M243.1,22.9h-2.2v2.3h2.2V22.9z"/>
		<path class="st23" d="M245.4,19.7c0.4,0.5,0.9,1,1.5,1.3c0.6,0.3,1.3,0.5,1.9,0.5h27.3v-7.3c0-0.5-0.1-1.1-0.4-1.6
			c-0.2-0.5-0.5-0.9-0.9-1.3c-0.4-0.4-0.9-0.6-1.4-0.8c-0.5-0.2-1.1-0.2-1.6-0.2c-1,0-1.9,0.3-2.6,0.9c-0.8,0.6-1.3,1.4-1.6,2.3
			c-3.2,0.5-4.4,3.5-4.4,6h-14.5c-0.4,0-0.7-0.1-1.1-0.2c-0.3-0.1-0.6-0.4-0.9-0.6c-0.2-0.3-0.4-0.6-0.6-0.9
			c-0.1-0.3-0.2-0.7-0.1-1.1v-5.2H244v5.7c0,0.3,0,0.6-0.1,0.9c-0.1,0.3-0.3,0.6-0.5,0.8c-0.2,0.2-0.5,0.4-0.8,0.5
			c-0.3,0.1-0.6,0.1-0.9,0.1h-9.3c-0.4,0-0.7-0.1-1.1-0.2c-0.3-0.1-0.6-0.4-0.9-0.6c-0.2-0.3-0.4-0.6-0.6-0.9
			c-0.1-0.3-0.2-0.7-0.1-1.1v-5.2h-2v5.7c0,0.3,0,0.6-0.1,0.9c-0.1,0.3-0.3,0.6-0.5,0.8c-0.2,0.2-0.5,0.4-0.8,0.5
			c-0.3,0.1-0.6,0.2-0.9,0.1h-22.2c-0.3,0-0.6,0-0.9-0.1c-0.3-0.1-0.5-0.3-0.8-0.5c-0.2-0.2-0.4-0.5-0.5-0.8
			c-0.1-0.3-0.1-0.6-0.1-0.9V9.7l-2,0.7v0.8c-1.9-0.2-3.8,0.3-5.3,1.4c-0.5,0.4-0.8,1-1,1.5c-0.2,0.6-0.4,1.2-0.3,1.8
			c0,0.6,0.1,1.1,0.3,1.7c0.2,0.5,0.5,1,0.9,1.4c0.7,0.7,1.6,1.1,2.6,1.2c0.6,0,1.2-0.1,1.7-0.3c0.5-0.2,1-0.6,1.4-1
			c0.2,0.8,0.7,1.4,1.4,1.9s1.5,0.7,2.3,0.6h22.8c0.6,0,1.3-0.1,1.8-0.4c0.6-0.3,1-0.7,1.4-1.3c0.4,0.5,0.9,1,1.5,1.3
			c0.6,0.3,1.3,0.5,1.9,0.5h9.5c0.7,0,1.3-0.1,1.9-0.4C244.6,20.7,245.1,20.2,245.4,19.7z M269.9,13.5c0.2-0.4,0.5-0.7,0.8-0.9
			c0.4-0.2,0.8-0.3,1.2-0.3c0.3,0,0.6,0,0.8,0.1c0.3,0.1,0.5,0.2,0.7,0.4c0.2,0.2,0.4,0.4,0.5,0.7c0.1,0.3,0.2,0.5,0.2,0.8v5.2h-1.4
			v-2.4c0-0.8-0.3-1.6-0.8-2.3C271.4,14,270.7,13.6,269.9,13.5z M270.7,17v2.4h-1.5v-3.5c0-0.2,0-0.4,0-0.6c0.2,0,0.4,0,0.6,0.1
			c0.2,0.1,0.4,0.2,0.5,0.3c0.1,0.1,0.2,0.3,0.3,0.5C270.7,16.6,270.7,16.8,270.7,17z M265.3,19.4c-0.1-0.8,0-1.5,0.4-2.2
			c0.3-0.7,0.9-1.2,1.6-1.6c0,0.1,0,0.3,0,0.4v3.5L265.3,19.4z M196.4,18.3c-0.2,0-0.5,0-0.7-0.1c-0.2-0.1-0.4-0.2-0.6-0.4
			c-0.4-0.5-0.7-1.2-0.7-1.8c0.1-2.5,2-2.8,4-2.8h0.5c0,1.6,0,3.6-0.9,4.5c-0.2,0.2-0.5,0.4-0.8,0.5
			C197.1,18.3,196.8,18.3,196.4,18.3z"/>
		<path class="st23" d="M198.7,36.5h-2.2v2.3h2.2V36.5z"/>
		<path class="st23" d="M201.7,36.5h-2.2v2.3h2.2V36.5z"/>
		<path class="st23" d="M197.8,52.4c3.5,0,5.2-3,5.2-5.7V41h-5.2c-3.5,0-5.1,2.9-5.1,5.7C192.8,49.4,194.4,52.4,197.8,52.4z
			 M197.8,42.8h3v3.8c0,1.4-0.6,3.8-3,3.8c-2.4,0-2.9-2.5-2.9-3.8C194.9,45.3,195.7,42.9,197.8,42.8L197.8,42.8z"/>
		<path class="st23" d="M251.7,41.7h-7.5c0.3-0.8,0.9-1.4,1.6-1.9c0.7-0.5,1.6-0.7,2.4-0.7h2.9v-1.8h-3.1c-1.6,0-3.1,0.7-4.3,1.8
			c-1.1,1.1-1.8,2.6-1.8,4.2v0.4h9.7c0.9,0.1,1.7,0.5,2.3,1.1c0.6,0.6,0.9,1.5,0.9,2.4c0,0.4,0,0.9-0.2,1.3
			c-0.2,0.4-0.4,0.8-0.7,1.1c-0.3,0.3-0.7,0.6-1.1,0.7c-0.4,0.2-0.8,0.3-1.3,0.3h-41.9c-0.3,0-0.6,0-0.9-0.1
			c-0.3-0.1-0.6-0.3-0.8-0.5c-0.2-0.2-0.4-0.5-0.5-0.8c-0.1-0.3-0.1-0.6-0.1-0.9v-11h-2V48c0,2.8,1.4,4.5,4,4.5h42.3
			c0.7,0,1.4-0.1,2-0.3c0.7-0.3,1.2-0.6,1.7-1.1c0.5-0.5,0.9-1.1,1.2-1.7c0.3-0.6,0.4-1.3,0.4-2c0-1.4-0.5-2.8-1.5-3.9
			C254.5,42.3,253.2,41.7,251.7,41.7z"/>
		<path class="st23" d="M265.1,37.9h-2.2v2.3h2.2V37.9z"/>
		<path class="st23" d="M263.8,54.9c0.4-0.4,0.7-0.8,0.9-1.3c0.2-0.5,0.3-1,0.3-1.6v-0.6c0.8,0.7,1.8,1,2.8,1h-0.2
			c2.5,0,4-1.6,4-4.5V37.2h-2.1v11c0,0.3,0,0.6-0.1,0.9c-0.1,0.3-0.3,0.6-0.5,0.8c-0.2,0.2-0.5,0.4-0.8,0.5
			c-0.3,0.1-0.6,0.1-0.9,0.1h0.3c-0.4,0-0.7-0.1-1-0.2c-0.3-0.1-0.6-0.3-0.9-0.6c-0.2-0.3-0.4-0.6-0.5-0.9c-0.1-0.3-0.2-0.7-0.1-1
			v-5.3H263V52c0,0.6-0.3,1.2-0.8,1.7c-0.5,0.4-1.1,0.6-1.8,0.6c-0.7,0-1.4-0.2-2-0.5l-0.7-0.4l0.3,2.1l0.2,0.1
			c0.8,0.4,1.6,0.6,2.5,0.7c0.6,0,1.2-0.1,1.8-0.4C262.9,55.7,263.4,55.4,263.8,54.9z"/>
		<path class="st23" d="M276.2,37.2h-2v15.2h2V37.2z"/>
		<path class="st23" d="M200.6,68.2h-2.3v2.4h2.3V68.2z"/>
		<path class="st23" d="M197.5,68.2h-2.3v2.4h2.3V68.2z"/>
		<path class="st23" d="M211.4,84.6h-2.3V87h2.3V84.6z"/>
		<path class="st23" d="M216.6,84.6h-2.3V87h2.3V84.6z"/>
		<path class="st23" d="M199.9,80.5c0.2,0.8,0.8,1.4,1.4,1.9c0.7,0.5,1.5,0.7,2.3,0.6h3.5c0.7,0,1.3-0.1,1.9-0.4
			c0.6-0.3,1.1-0.8,1.4-1.3c0.4,0.5,1,1,1.6,1.3c0.6,0.3,1.3,0.5,2,0.5h2.9c2.6,0,4-1.6,4-4.5v-6.4h-2v6.6c0,0.3,0,0.6-0.1,0.9
			c-0.1,0.3-0.3,0.6-0.5,0.8c-0.2,0.2-0.5,0.4-0.8,0.5c-0.3,0.1-0.6,0.1-0.9,0.1h-2.8c-0.4,0-0.7-0.1-1.1-0.2
			c-0.3-0.1-0.7-0.4-0.9-0.6c-0.3-0.3-0.4-0.6-0.6-1c-0.1-0.4-0.2-0.7-0.1-1.1v-5.3h-2.1v5.9c0,0.3,0,0.6-0.1,0.9
			c-0.1,0.3-0.3,0.6-0.5,0.8c-0.2,0.2-0.5,0.4-0.8,0.5c-0.3,0.1-0.6,0.1-0.9,0.1h-3c-0.3,0-0.6,0-0.9-0.1s-0.6-0.3-0.8-0.5
			c-0.2-0.2-0.4-0.5-0.5-0.8c-0.1-0.3-0.1-0.6-0.1-0.9v-7.6l-2.1,0.7v0.8c-1.9-0.2-3.8,0.3-5.4,1.4c-0.5,0.4-0.8,1-1.1,1.6
			c-0.2,0.6-0.4,1.2-0.3,1.9c0,0.6,0.1,1.2,0.3,1.7c0.2,0.6,0.5,1.1,1,1.5c0.3,0.4,0.8,0.7,1.2,0.9s1,0.3,1.5,0.3
			c0.6,0,1.2-0.1,1.8-0.4C199,81.3,199.5,81,199.9,80.5z M196.9,80c-0.2,0-0.5,0-0.7-0.1c-0.2-0.1-0.4-0.2-0.6-0.4
			c-0.4-0.5-0.7-1.2-0.7-1.9c0.1-2.5,2.1-2.9,4.1-2.9h0.5c0,1.6,0,3.7-0.9,4.6c-0.2,0.2-0.5,0.4-0.8,0.5
			C197.5,79.9,197.2,80,196.9,80z"/>
		<path class="st23" d="M219.7,84.6h-2.3V87h2.3V84.6z"/>
		<path class="st23" d="M244.8,67.5h-2.3v2.4h2.3V67.5z"/>
		<path class="st23" d="M257.5,78.7c0,0.3,0,0.6-0.1,0.9c-0.1,0.3-0.3,0.6-0.5,0.8c-0.2,0.2-0.5,0.4-0.8,0.5
			c-0.3,0.1-0.6,0.2-0.9,0.1h-5.5c0.7-0.9,1-2,1-3.1c0-3.8-3.2-5.5-6.3-5.5c-1.3,0-2.6,0.2-3.8,0.7c-1.2,0.5-2.2,1.3-3,2.4l0.1-1.6
			h-2.1v7h-3.7c-0.4,0-0.7,0-1.1-0.2c-0.3-0.1-0.6-0.3-0.9-0.6c-0.3-0.3-0.4-0.6-0.6-0.9c-0.1-0.3-0.2-0.7-0.1-1.1v-5.4h-2.1v9.8
			c0,0.7-0.4,1.3-0.8,1.7c-0.5,0.4-1.1,0.7-1.8,0.6c-0.7,0-1.4-0.2-2-0.5l-0.8-0.4l0.3,2.2l0.2,0.1c0.8,0.4,1.6,0.6,2.5,0.7
			c1.2,0,2.4-0.5,3.2-1.3c0.4-0.4,0.7-0.9,0.9-1.4c0.2-0.5,0.3-1.1,0.3-1.6V82c0.8,0.7,1.8,1.1,2.9,1.1h23.6c2.6,0,4-1.6,4-4.5v-11
			h-2.1V78.7z M244.6,74.4c1,0,1.9,0.3,2.7,1c0.7,0.7,1.2,1.6,1.2,2.6c0,0.8-0.4,1.6-1,2.2c-0.6,0.6-1.4,0.9-2.2,0.9h-7.9
			c0.1-1.8,0.9-3.5,2.3-4.8C241,75,242.8,74.4,244.6,74.4L244.6,74.4z"/>
		<path class="st23" d="M264.2,67.5h-2.1V83h2.1V67.5z"/>
		<path class="st23" d="M266.3,77.7c0,0.7,0.1,1.4,0.4,2.1c0.3,0.7,0.7,1.2,1.2,1.7c0.5,0.5,1.1,0.9,1.8,1.1
			c0.7,0.3,1.4,0.4,2.1,0.4h2.2c-0.1,0.5-0.3,0.9-0.6,1.3c-0.3,0.2-0.6,0.4-0.9,0.5c-0.3,0.1-0.7,0.1-1,0.1c-0.7,0-1.4-0.2-2.1-0.5
			l-0.7-0.3l0.3,2.2l0.2,0.1c0.8,0.4,1.6,0.6,2.5,0.7h0.3c0.6,0,1.2-0.1,1.7-0.3s1-0.5,1.4-0.9c0.4-0.4,0.7-0.9,0.9-1.4
			c0.2-0.5,0.3-1.1,0.2-1.7V72.1h-4.4c-0.7,0-1.5,0.1-2.1,0.4c-0.7,0.3-1.3,0.7-1.8,1.2c-0.5,0.5-0.9,1.1-1.2,1.8
			C266.4,76.2,266.3,76.9,266.3,77.7z M271.8,74h2.3v7h-2.3c-0.4,0-0.9-0.1-1.3-0.3c-0.4-0.2-0.8-0.4-1.1-0.8
			c-0.3-0.3-0.5-0.7-0.7-1.1c-0.2-0.4-0.2-0.9-0.2-1.3c0-0.9,0.3-1.7,0.9-2.4C270.1,74.5,270.9,74.1,271.8,74L271.8,74z"/>
		<path class="st34" d="M195.9,144.5h11.2v2.1h-14.3v-1.9l10.8-15.6H193v-2.1h13.7v1.9L195.9,144.5z M221.5,141.4h-8.2l-1.8,5.1
			h-2.7l7.5-19.6h2.3l7.5,19.6h-2.7L221.5,141.4z M214.1,139.3h6.7l-3.3-9.2L214.1,139.3z M240.5,129.1h-6.3v17.5h-2.6v-17.5h-6.3
			v-2.1h15.2V129.1z M257.5,140.3c-0.2,2.1-1,3.7-2.3,4.8c-1.3,1.1-3,1.7-5.1,1.7c-2.3,0-4.2-0.8-5.6-2.5c-1.4-1.7-2.1-3.9-2.1-6.7
			v-1.9c0-1.8,0.3-3.4,1-4.8c0.7-1.4,1.6-2.4,2.8-3.2c1.2-0.7,2.6-1.1,4.2-1.1c2.1,0,3.8,0.6,5,1.8c1.3,1.2,2,2.8,2.2,4.8h-2.6
			c-0.2-1.6-0.7-2.7-1.5-3.4c-0.7-0.7-1.8-1.1-3.1-1.1c-1.7,0-3,0.6-3.9,1.8c-0.9,1.2-1.4,3-1.4,5.2v1.9c0,2.1,0.4,3.8,1.3,5.1
			c0.9,1.3,2.1,1.9,3.7,1.9c1.4,0,2.5-0.3,3.3-1c0.8-0.7,1.3-1.8,1.5-3.4H257.5z M271.9,141.4h-8.2l-1.8,5.1h-2.7l7.5-19.6h2.3
			l7.5,19.6h-2.7L271.9,141.4z M264.4,139.3h6.7l-3.3-9.2L264.4,139.3z"/>
	</g>
	<g style="clip-path:url(#SVGID_1_);">
		<g>
			<path class="st0" d="M86,54.7l15.4-34.1h-40l-21,46.3h26.7C75.2,66.9,82.6,62.1,86,54.7z"/>
			<path class="st1" d="M78.5,48l16.3-36.1h-40l-21,46.3h28.9C69.5,58.2,75.7,54.2,78.5,48z"/>
			<g>
				<linearGradient id="SVGID_2_" gradientUnits="userSpaceOnUse" x1="-8.4711" y1="53.4001" x2="122.2446" y2="-5.1212">
					<stop  offset="0.1" style="stop-color:#62B55F"/>
					<stop  offset="0.5" style="stop-color:#52BAB2"/>
					<stop  offset="0.788" style="stop-color:#1592D0"/>
					<stop  offset="1" style="stop-color:#2454A0"/>
				</linearGradient>
				<path class="st3" d="M41.7,3.8l-2.2,4.8h-7.2l-2.5,5.4h23l-3.3,7.2H38.3l-2.5,5.4H21.1L18.7,32h27.1l-3.3,7.2H32.3L30.1,44H22
					l-2.5,5.4h38.3c5.8,0,11-3.4,13.3-8.6L88,3.8H41.7z"/>
				<linearGradient id="SVGID_3_" gradientUnits="userSpaceOnUse" x1="-37.7831" y1="40.1251" x2="157.2787" y2="-47.2038">
					<stop  offset="0.1" style="stop-color:#62B55F"/>
					<stop  offset="0.5" style="stop-color:#52BAB2"/>
					<stop  offset="0.788" style="stop-color:#1592D0"/>
					<stop  offset="1" style="stop-color:#2454A0"/>
				</linearGradient>
				<polygon class="st4" points="29.2,11.2 19.4,11.2 18.2,13.9 28,13.9 				"/>
				<linearGradient id="SVGID_4_" gradientUnits="userSpaceOnUse" x1="-12.2084" y1="53.4062" x2="134.9453" y2="-12.4743">
					<stop  offset="0.1" style="stop-color:#62B55F"/>
					<stop  offset="0.5" style="stop-color:#52BAB2"/>
					<stop  offset="0.788" style="stop-color:#1592D0"/>
					<stop  offset="1" style="stop-color:#2454A0"/>
				</linearGradient>
				<polygon class="st5" points="25.5,37 18.7,37 17.5,39.7 24.3,39.7 				"/>
				<linearGradient id="SVGID_5_" gradientUnits="userSpaceOnUse" x1="-17.5346" y1="41.5093" x2="129.6191" y2="-24.3712">
					<stop  offset="0.1" style="stop-color:#62B55F"/>
					<stop  offset="0.5" style="stop-color:#52BAB2"/>
					<stop  offset="0.788" style="stop-color:#1592D0"/>
					<stop  offset="1" style="stop-color:#2454A0"/>
				</linearGradient>
				<polygon class="st6" points="25.9,21.6 32.7,21.6 33.9,18.9 27.2,18.9 				"/>
				<linearGradient id="SVGID_6_" gradientUnits="userSpaceOnUse" x1="-17.4657" y1="41.6632" x2="129.688" y2="-24.2173">
					<stop  offset="0.1" style="stop-color:#62B55F"/>
					<stop  offset="0.5" style="stop-color:#52BAB2"/>
					<stop  offset="0.788" style="stop-color:#1592D0"/>
					<stop  offset="1" style="stop-color:#2454A0"/>
				</linearGradient>
				<polygon class="st7" points="18.7,26.3 10,26.3 8.8,29 17.5,29 				"/>
				<linearGradient id="SVGID_7_" gradientUnits="userSpaceOnUse" x1="-10.665" y1="56.8535" x2="136.4886" y2="-9.027">
					<stop  offset="0.1" style="stop-color:#62B55F"/>
					<stop  offset="0.5" style="stop-color:#52BAB2"/>
					<stop  offset="0.788" style="stop-color:#1592D0"/>
					<stop  offset="1" style="stop-color:#2454A0"/>
				</linearGradient>
				<polygon class="st8" points="5,48.1 17.5,48.1 18.7,45.4 6.3,45.4 				"/>
				<linearGradient id="SVGID_8_" gradientUnits="userSpaceOnUse" x1="-18.5469" y1="74.8679" x2="202.9655" y2="-24.3029">
					<stop  offset="0.1" style="stop-color:#62B55F"/>
					<stop  offset="0.5" style="stop-color:#52BAB2"/>
					<stop  offset="0.788" style="stop-color:#1592D0"/>
					<stop  offset="1" style="stop-color:#2454A0"/>
				</linearGradient>
				<polygon class="st12" points="4.8,61 24.7,61 25.9,58.3 6,58.3 				"/>
			</g>
		</g>
		<g>
			<g>
				<g>
					<path class="st23" d="M7.9,127.4v6.6h8.6v2.9H7.9v9.1H4.5v-21.4h13.4v2.9H7.9z"/>
					<path class="st23" d="M21.7,132.9l-0.5-2.1c5.2-2.2,11.7-2.2,11.7,4.3v10.8h-3.2v-2.1c-1.6,1.6-3.3,2.3-5.2,2.3
						c-2.7,0-4.3-1.8-4.3-4.2c0-3.5,3.6-6.1,9.5-5.8v-0.9C29.8,131.1,25.6,131.5,21.7,132.9z M23.2,141.5c0,1.4,1.1,2.1,2.6,2.1
						c1.7,0,2.9-0.7,4-1.7V138C25.4,137.5,23.2,139.8,23.2,141.5z"/>
					<path class="st23" d="M40.2,142.1c0,1.3,0.7,1.8,1.7,1.8c0.5,0,1.3-0.1,1.5-0.2v2.3c-0.7,0.2-2.1,0.2-2.7,0.2
						c-2.7,0-3.7-1.4-3.7-3.9v-9.5h-2.1l0.5-2.4H37v-3.9l3.2-0.8v4.7h3.4l-0.5,2.4h-2.9V142.1z"/>
					<path class="st23" d="M45.3,137.9c0-4.7,2.3-8.2,7.2-8.2s7.2,3.5,7.2,8.2c0,4.7-2.3,8.2-7.2,8.2S45.3,142.6,45.3,137.9z
						 M48.3,137.9c0,3.2,1.3,5.9,4.2,5.9c3,0,4.2-2.7,4.2-5.9c0-3.2-1.2-5.9-4.2-5.9C49.6,132,48.3,134.7,48.3,137.9z"/>
					<path class="st23" d="M61.9,137.9c0-4.7,2.3-8.2,7.2-8.2s7.2,3.5,7.2,8.2c0,4.7-2.3,8.2-7.2,8.2S61.9,142.6,61.9,137.9z
						 M64.8,137.9c0,3.2,1.3,5.9,4.2,5.9c3,0,4.2-2.7,4.2-5.9c0-3.2-1.2-5.9-4.2-5.9C66.1,132,64.8,134.7,64.8,137.9z"/>
					<path class="st23" d="M79.4,145.9v-15.7h3.2v2.9c1.4-2.1,3.5-3,5.6-3v2.5c-2.2-0.2-4.9,1.5-5.6,2.9v10.4H79.4z"/>
					<path class="st23" d="M90.6,132.9l-0.5-2.1c5.2-2.2,11.7-2.2,11.7,4.3v10.8h-3.2v-2.1c-1.6,1.6-3.3,2.3-5.2,2.3
						c-2.7,0-4.3-1.8-4.3-4.2c0-3.5,3.6-6.1,9.5-5.8v-0.9C98.7,131.1,94.6,131.5,90.6,132.9z M92.1,141.5c0,1.4,1.1,2.1,2.6,2.1
						c1.7,0,2.9-0.7,4-1.7V138C94.3,137.5,92.1,139.8,92.1,141.5z"/>
				</g>
			</g>
			<g>
				<path class="st23" d="M14.7,91.1c1,0,1.8-0.8,1.8-1.8c0-1-0.8-1.8-1.8-1.8c-1,0-1.9,0.8-1.9,1.8C12.8,90.2,13.7,91.1,14.7,91.1z
					"/>
				<path class="st23" d="M11.6,93.4h-0.5c-3.5,0-6.4,2.8-6.4,6.4v3c0,3.5,2.8,6.4,6.4,6.4H12c3.3,0,6-2.7,6-6v-3.3
					C18,96.2,15.2,93.4,11.6,93.4z M15,103.1c0,1.6-1.3,2.9-2.9,2.9h-1c-1.9,0-3.4-1.5-3.4-3.4v-3c0-1.9,1.5-3.4,3.4-3.4h0.5
					c1.9,0,3.4,1.4,3.4,3.4V103.1z"/>
				<path class="st23" d="M9.2,91.1c1,0,1.8-0.8,1.8-1.8c0-1-0.8-1.8-1.8-1.8c-1,0-1.9,0.8-1.9,1.8C7.3,90.2,8.2,91.1,9.2,91.1z"/>
				<path class="st23" d="M24.1,109.6c0,2-1.4,3.5-3.5,3.5h-1.5v3h1.5c3.7,0,6.4-2.8,6.4-6.4V94.3h-3V109.6z"/>
				<path class="st23" d="M50.9,92.3c1,0,1.8-0.8,1.8-1.9c0-1-0.8-1.8-1.8-1.8c-1,0-1.9,0.8-1.9,1.8C49.1,91.4,49.9,92.3,50.9,92.3z
					"/>
				<path class="st23" d="M56.4,88.6c-1,0-1.9,0.8-1.9,1.8c0,1,0.9,1.9,1.9,1.9c1,0,1.8-0.8,1.8-1.9C58.3,89.4,57.5,88.6,56.4,88.6z
					"/>
				<path class="st23" d="M53.1,104.6c0,1-0.7,1.4-1.4,1.4H48h-2.6h-1.3v-6.1c0-3.7-2.8-6.5-6.5-6.5h-0.3c-3.7,0-6.5,2.8-6.5,6.5
					v2.6c0,3.6,2.8,6.5,6.3,6.5h4.1v0.7c0,2.8-2,4-8,3.1v2.8c7.2,1.4,10.9-0.9,10.9-5.2v-1.4h1.3H48h4.7c1.9,0,3.4-1.5,3.4-3.4V94.4
					h-3V104.6z M41.1,106h-4c-1.8,0-3.3-1.6-3.3-3.5v-2.6c0-2.1,1.4-3.5,3.5-3.5h0.3c2.1,0,3.5,1.4,3.5,3.5V106z"/>
				<path class="st23" d="M95.3,93.4H95c-3.7,0-6.5,2.8-6.5,6.5v2.6c0,1.4,0.6,2.7,1.5,3.6H87h-0.3h-5.1H81h-4.8h-0.6h-4.8h-0.6
					h-2.7h-0.6h-1.3c-0.7,0-1.4-0.5-1.4-1.4v-17h-3v18c0,1.9,1.5,3.4,3.5,3.4h2.2h0.6h2.7h0.6h4.8h0.6H81h0.6H87v0h8.8
					c3.4,0,6.1-2.7,6.1-6.1v-3C101.8,96.3,99,93.4,95.3,93.4z M98.9,102.7c0,1.9-1.5,3.4-3.4,3.4h-0.6c-1.8,0-3.4-1.6-3.4-3.6v-2.6
					c0-2,1.5-3.5,3.5-3.5h0.3c2,0,3.5,1.5,3.5,3.5V102.7z"/>
				<path class="st23" d="M95.2,90.7c1,0,1.9-0.8,1.9-1.9c0-1-0.8-1.8-1.9-1.8c-1,0-1.9,0.9-1.8,1.9C93.4,89.9,94.2,90.7,95.2,90.7z
					"/>
			</g>
		</g>
	</g>
</g>
</svg>
