<?xml version="1.0" encoding="utf-8"?>
<!-- Generator: Adobe Illustrator 25.3.1, SVG Export Plug-In . SVG Version: 6.00 Build 0)  -->
<svg version="1.1" id="Layer_1" xmlns="http://www.w3.org/2000/svg" xmlns:xlink="http://www.w3.org/1999/xlink" x="0px" y="0px"
	 viewBox="0 0 398 139" style="enable-background:new 0 0 398 139;" xml:space="preserve">
<style type="text/css">
	.st0{fill:#212121;}
	.st1{fill:#7CB7B2;}
	.st2{fill:#039B92;}
</style>
<g>
	<g>
		<path class="st0" d="M185.4,90.1l-1,6.5h-14.3l9.4-38.9h20.4l9.6,38.9h-15l-1.1-6.5H185.4z M191.3,79.5c-0.4-3-1.3-8.8-1.9-13.3
			h-0.3c-0.6,4.3-1.2,9.1-1.9,13.3H191.3z"/>
		<path class="st0" d="M226.8,83v13.6h-14.1V57.7h20.4c10.6,0,14,6,14,10.7c0,5.2-2.6,8-6,9.3c4.5,1.6,5.5,5.4,5.5,9.4v1.4
			c0,3-0.1,6.6,0.3,8.1h-14c-0.6-1.5-0.8-4.2-0.8-7.8v-1.1c0-3.8-1-4.6-3.9-4.6L226.8,83L226.8,83z M226.8,73.9h2.4
			c2.7,0,3.5-1.8,3.5-3.7c0-2.3-1.1-3.5-3.6-3.5h-2.4V73.9z"/>
		<path class="st0" d="M282.1,86.7c0-5.2,0.1-13.9,0.3-18.9h-0.4c-1,8.6-2.3,20.3-3.5,28.8h-10.9c-1.1-10.3-2.1-19-3.1-28.5h-0.5
			c0.2,4.5,0.5,11.8,0.5,18.5v10.1h-12.7V57.7h20.1c0.4,4.3,1.3,14.5,1.6,19.5h0.5c1-7.5,1.2-12.7,2.3-19.5h19.8v38.9H282
			L282.1,86.7L282.1,86.7z"/>
		<path class="st0" d="M313.4,84.2c0.2,3.1,1.7,4.4,4.3,4.4c2.1,0,3.1-0.9,3.1-2.5c0-1.8-1.3-2.9-6.5-4.3
			c-10.6-2.8-13.2-7.1-13.2-12.3c0-8.6,7-12.8,16.5-12.8c9.8,0,16.5,4.3,16.9,12.9h-13.2c-0.1-2.1-1-3.9-3.5-3.9
			c-1.5,0-2.7,0.7-2.7,2c0,1.8,1.4,2.5,6.3,3.9c10.7,3,13.9,6.6,13.9,13c0,9.4-8,13.1-17.8,13.1c-11.5,0-17.1-5.9-17.5-13.5
			L313.4,84.2L313.4,84.2z"/>
		<path class="st0" d="M345.4,56.9v39.7h-3.1V56.9H345.4z"/>
		<path class="st0" d="M365.1,59.7h-13.3v-2.8h29.9v2.8h-13.4v36.9h-3.1V59.7z"/>
	</g>
</g>
<g>
	<path class="st1" d="M94.7,30.9v18.3c-1.9-1.8-4.4-3-7.2-3.2V20.6L94.7,30.9z"/>
	<path class="st1" d="M94.7,66.5v37.1c-2.4-0.2-4.8-0.2-7.2-0.3V69.6C90.3,69.4,92.8,68.3,94.7,66.5z"/>
	<path class="st1" d="M96.6,33.7l6,8.6v62.1c-2-0.2-4-0.4-6-0.6V64.1c1.1-1.8,1.8-4,1.8-6.3s-0.7-4.5-1.8-6.3V33.7z"/>
	<path class="st1" d="M104.5,45l6,8.6v52c-2-0.4-4-0.7-6-1V45z"/>
	<path class="st1" d="M112.4,56.3l6,8.6v42.4c-2-0.5-4-1-6-1.4V56.3z"/>
	<path class="st1" d="M126.3,76.2v33.4c-2-0.6-4-1.2-6-1.8V67.6L126.3,76.2z"/>
	<path class="st1" d="M134.2,87.5v24.9c-2-0.8-4-1.5-6-2.2V78.9L134.2,87.5z"/>
	<path class="st1" d="M142.1,98.8v17.1c-2-1-4-1.8-6-2.7v-23L142.1,98.8z"/>
	<path class="st1" d="M150,110.1v9.7h-0.3c-1.9-1.1-3.8-2.1-5.7-3v-15.3L150,110.1z"/>
	<path class="st1" d="M156.9,120c-1.5,0-3.3-0.1-5-0.1v-7L156.9,120z"/>
	<path class="st2" d="M74.8,57.9c0,6.2,4.8,11.3,10.9,11.8v33.7c-28,0.1-51.2,8.8-61.9,15h-7.5l69.3-97.7v25.5
		C79.7,46.5,74.8,51.6,74.8,57.9z"/>
</g>
</svg>
